<svg width="10" height="10" viewBox="0 0 10 10" fill="none" xmlns="http://www.w3.org/2000/svg">
<g id="bi:arrow-left-right">
<g id="Group">
<path id="Vector" fill-rule="evenodd" clip-rule="evenodd" d="M6.91606 6.22591C6.88952 6.19931 6.85799 6.1782 6.82328 6.16379C6.78857 6.14939 6.75136 6.14197 6.71377 6.14197C6.67619 6.14197 6.63898 6.14939 6.60427 6.16379C6.56956 6.1782 6.53803 6.19931 6.51149 6.22591L4.99949 7.73849L3.48749 6.22591C3.46092 6.19935 3.42939 6.17828 3.39468 6.1639C3.35997 6.14952 3.32277 6.14212 3.2852 6.14212C3.24764 6.14212 3.21044 6.14952 3.17573 6.1639C3.14102 6.17828 3.10948 6.19935 3.08292 6.22591C3.05635 6.25248 3.03528 6.28402 3.0209 6.31872C3.00653 6.35343 2.99913 6.39063 2.99913 6.4282C2.99913 6.46577 3.00653 6.50297 3.0209 6.53768C3.03528 6.57238 3.05635 6.60392 3.08292 6.63049L4.7972 8.34477C4.82374 8.37138 4.85527 8.39249 4.88998 8.40689C4.9247 8.4213 4.96191 8.42871 4.99949 8.42871C5.03707 8.42871 5.07428 8.4213 5.10899 8.40689C5.14371 8.39249 5.17523 8.37138 5.20177 8.34477L6.91606 6.63049C6.94267 6.60395 6.96378 6.57242 6.97818 6.5377C6.99259 6.50299 7 6.46578 7 6.4282C7 6.39062 6.99259 6.35341 6.97818 6.31869C6.96378 6.28398 6.94267 6.25245 6.91606 6.22591Z" fill="#333333"/>
<path id="Vector_2" fill-rule="evenodd" clip-rule="evenodd" d="M4.99944 8.14258C5.07522 8.14258 5.14789 8.11248 5.20147 8.05889C5.25505 8.00531 5.28516 7.93264 5.28516 7.85686L5.28516 1.85686C5.28516 1.78109 5.25505 1.70842 5.20147 1.65483C5.14789 1.60125 5.07522 1.57115 4.99944 1.57115C4.92367 1.57115 4.85099 1.60125 4.79741 1.65483C4.74383 1.70842 4.71373 1.78109 4.71373 1.85686L4.71373 7.85686C4.71373 7.93264 4.74383 8.00531 4.79741 8.05889C4.85099 8.11248 4.92367 8.14258 4.99944 8.14258Z" fill="#333333"/>
</g>
</g>
</svg>
