<svg width="36" height="36" viewBox="0 0 36 36" fill="none" xmlns="http://www.w3.org/2000/svg">
<g id="brandico:facebook-rect">
<path id="Vector" d="M9.43004 4.5C6.69901 4.5 4.5 6.69901 4.5 9.43003V26.5699C4.5 29.301 6.69901 31.5 9.43004 31.5H18.7197V20.9447H15.9286V17.1444H18.7197V13.8977C18.7197 11.3469 20.3689 9.00478 24.1678 9.00478C25.706 9.00478 26.8434 9.15244 26.8434 9.15244L26.7539 12.7013C26.7539 12.7013 25.5939 12.6903 24.3281 12.6903C22.9582 12.6903 22.7385 13.3215 22.7385 14.3694V17.1445H26.8628L26.683 20.9447H22.7385V31.5H26.57C29.301 31.5 31.5 29.301 31.5 26.57V9.43006C31.5 6.69904 29.301 4.50003 26.57 4.50003H9.43001L9.43004 4.5Z" fill="#4B42B6"/>
</g>
</svg>
