<svg width="36" height="36" viewBox="0 0 36 36" fill="none" xmlns="http://www.w3.org/2000/svg">
<path d="M31.4211 12.4577C31.406 11.3216 31.1933 10.1968 30.7926 9.13368C30.4451 8.23691 29.9144 7.42248 29.2343 6.74243C28.5543 6.06237 27.7399 5.53166 26.8431 5.18418C25.7936 4.79022 24.6849 4.57719 23.5641 4.55418C22.1211 4.48968 21.6636 4.47168 18.0006 4.47168C14.3376 4.47168 13.8681 4.47168 12.4356 4.55418C11.3153 4.57736 10.2071 4.79038 9.15809 5.18418C8.26118 5.53141 7.44663 6.06205 6.76654 6.74213C6.08646 7.42221 5.55583 8.23677 5.20859 9.13368C4.81384 10.1824 4.60128 11.2908 4.58009 12.4112C4.51559 13.8557 4.49609 14.3132 4.49609 17.9762C4.49609 21.6392 4.49609 22.1072 4.58009 23.5412C4.60259 24.6632 4.81409 25.7702 5.20859 26.8217C5.55641 27.7183 6.08744 28.5325 6.76775 29.2123C7.44806 29.8921 8.26269 30.4225 9.15959 30.7697C10.2057 31.1795 11.3142 31.4077 12.4371 31.4447C13.8816 31.5092 14.3391 31.5287 18.0021 31.5287C21.6651 31.5287 22.1346 31.5287 23.5671 31.4447C24.6878 31.4226 25.7966 31.2101 26.8461 30.8162C27.7426 30.4683 28.5569 29.9374 29.2369 29.2574C29.9169 28.5774 30.4477 27.7632 30.7956 26.8667C31.1901 25.8167 31.4016 24.7097 31.4241 23.5862C31.4886 22.1432 31.5081 21.6857 31.5081 18.0212C31.5051 14.3582 31.5051 13.8932 31.4211 12.4577ZM17.9916 24.9032C14.1606 24.9032 11.0571 21.7997 11.0571 17.9687C11.0571 14.1377 14.1606 11.0342 17.9916 11.0342C19.8307 11.0342 21.5946 11.7648 22.895 13.0652C24.1955 14.3657 24.9261 16.1295 24.9261 17.9687C24.9261 19.8078 24.1955 21.5716 22.895 22.8721C21.5946 24.1726 19.8307 24.9032 17.9916 24.9032ZM25.2021 12.3947C24.3066 12.3947 23.5851 11.6717 23.5851 10.7777C23.5851 10.5654 23.6269 10.3553 23.7081 10.1592C23.7893 9.96308 23.9084 9.7849 24.0585 9.63482C24.2086 9.48474 24.3867 9.36568 24.5828 9.28446C24.7789 9.20324 24.9891 9.16143 25.2013 9.16143C25.4136 9.16143 25.6238 9.20324 25.8199 9.28446C26.0159 9.36568 26.1941 9.48474 26.3442 9.63482C26.4943 9.7849 26.6133 9.96308 26.6946 10.1592C26.7758 10.3553 26.8176 10.5654 26.8176 10.7777C26.8176 11.6717 26.0946 12.3947 25.2021 12.3947Z" fill="url(#paint0_radial_257_4298)"/>
<path d="M17.9908 22.4729C20.4786 22.4729 22.4953 20.4561 22.4953 17.9684C22.4953 15.4806 20.4786 13.4639 17.9908 13.4639C15.5031 13.4639 13.4863 15.4806 13.4863 17.9684C13.4863 20.4561 15.5031 22.4729 17.9908 22.4729Z" fill="url(#paint1_radial_257_4298)"/>
<defs>
<radialGradient id="paint0_radial_257_4298" cx="0" cy="0" r="1" gradientUnits="userSpaceOnUse" gradientTransform="translate(26.2505 31.5002) rotate(-124.077) scale(30.7866 30.7354)">
<stop stop-color="#F3B80B" stop-opacity="0.67"/>
<stop offset="0.442708" stop-color="#E7476E"/>
<stop offset="1" stop-color="#3E5BED"/>
</radialGradient>
<radialGradient id="paint1_radial_257_4298" cx="0" cy="0" r="1" gradientUnits="userSpaceOnUse" gradientTransform="translate(20.7418 22.4634) rotate(-124.121) scale(10.2562 10.2454)">
<stop stop-color="#F3B80B" stop-opacity="0.67"/>
<stop offset="0.442708" stop-color="#E7476E"/>
<stop offset="1" stop-color="#3E5BED"/>
</radialGradient>
</defs>
</svg>
