<svg xmlns="http://www.w3.org/2000/svg" xmlns:xlink="http://www.w3.org/1999/xlink" width="390" height="166" viewBox="0 0 390 166" fill="none">
  <path fill-rule="evenodd" clip-rule="evenodd" d="M20 0C8.95431 0 0 8.95429 0 20V20.9515V112.01V119.615C5.41682 122.545 10.6511 125.734 16.0553 129.026C38.7163 142.832 64.3663 158.458 119 164.495C165.821 169.669 212.441 160.558 258.846 151.49C302.761 142.908 346.484 134.364 390 137.999V112.01V20.9515V20C390 8.9543 381.046 0 370 0H20Z" fill="#A95858"/>
  <path fill-rule="evenodd" clip-rule="evenodd" d="M20 0C8.95431 0 0 8.95429 0 20V20.9515V112.01V119.615C5.41682 122.545 10.6511 125.734 16.0553 129.026C38.7163 142.832 64.3663 158.458 119 164.495C165.821 169.669 212.441 160.558 258.846 151.49C302.761 142.908 346.484 134.364 390 137.999V112.01V20.9515V20C390 8.9543 381.046 0 370 0H20Z" fill="url(#pattern0)"/>
</svg>