<svg xmlns="http://www.w3.org/2000/svg" xmlns:xlink="http://www.w3.org/1999/xlink" width="102" height="184" viewBox="0 0 102 184" fill="none">
  <path fill-rule="evenodd" clip-rule="evenodd" d="M20 0C8.95431 0 0 8.9543 0 20V164C0 175.046 8.95429 184 20 184H52.9643H76.7599H82.1331C78.7526 167.558 84.2513 151.384 90.3698 133.387C94.6711 120.734 99.2787 107.181 101.323 92C105.161 63.5 91.856 19 82.1331 0H76.7599H52.9643H20Z" fill="#C4C4C4"/>
  <path fill-rule="evenodd" clip-rule="evenodd" d="M20 0C8.95431 0 0 8.9543 0 20V164C0 175.046 8.95429 184 20 184H52.9643H76.7599H82.1331C78.7526 167.558 84.2513 151.384 90.3698 133.387C94.6711 120.734 99.2787 107.181 101.323 92C105.161 63.5 91.856 19 82.1331 0H76.7599H52.9643H20Z" fill="url(#pattern0)"/>
</svg>