<svg xmlns="http://www.w3.org/2000/svg" xmlns:xlink="http://www.w3.org/1999/xlink" width="390" height="320" viewBox="0 0 390 320" fill="none">
<path fill-rule="evenodd" clip-rule="evenodd" d="M20 0C8.95431 0 0 8.95429 0 20V83.0108V176.023V244.213C5.41682 249.001 10.6511 254.211 16.0553 259.59C38.7163 282.146 64.3663 307.677 119 317.541C165.821 325.995 212.441 311.109 258.846 296.293C302.761 282.271 346.484 268.311 390 274.251V176.023V83.0108V20C390 8.95431 381.046 0 370 0H20Z" fill="#A95858"/>
<path fill-rule="evenodd" clip-rule="evenodd" d="M20 0C8.95431 0 0 8.95429 0 20V83.0108V176.023V244.213C5.41682 249.001 10.6511 254.211 16.0553 259.59C38.7163 282.146 64.3663 307.677 119 317.541C165.821 325.995 212.441 311.109 258.846 296.293C302.761 282.271 346.484 268.311 390 274.251V176.023V83.0108V20C390 8.95431 381.046 0 370 0H20Z" fill="url(#pattern0)"/>
</svg>