<svg width="92" height="288" viewBox="0 0 92 288" fill="none" xmlns="http://www.w3.org/2000/svg" xmlns:xlink="http://www.w3.org/1999/xlink">
<path fill-rule="evenodd" clip-rule="evenodd" d="M20 0C8.95431 0 0 8.9543 0 20V268C0 279.046 8.95431 288 20 288H24.2521H56.9398H62.4756C55.7096 238.667 56.9398 192.5 78.8195 130C89.5009 99.4881 90.6909 48.7817 91.4018 18.4901C91.5827 10.7816 91.7326 4.39519 92 0H56.9398H24.2521H20Z" fill="#C4C4C4"/>
<path fill-rule="evenodd" clip-rule="evenodd" d="M20 0C8.95431 0 0 8.9543 0 20V268C0 279.046 8.95431 288 20 288H24.2521H56.9398H62.4756C55.7096 238.667 56.9398 192.5 78.8195 130C89.5009 99.4881 90.6909 48.7817 91.4018 18.4901C91.5827 10.7816 91.7326 4.39519 92 0H56.9398H24.2521H20Z" fill="url(#pattern0)"/>
</svg>
