<svg xmlns="http://www.w3.org/2000/svg" xmlns:xlink="http://www.w3.org/1999/xlink" width="94" height="288" viewBox="0 0 94 288" fill="none">
  <path fill-rule="evenodd" clip-rule="evenodd" d="M26.1889 6.33815e-06C32.1905 49.3333 31.0993 95.5 11.6915 158C2.21674 188.512 1.16117 239.218 0.530585 269.51C0.370116 277.218 0.237167 283.605 0 288H43.4916H60.0941H73.9987C85.0444 288 93.9987 279.046 93.9987 268V20C93.9987 8.95431 85.0444 0 73.9987 0H60.0941H43.4916L26.1889 6.33815e-06Z" fill="#C4C4C4"/>
  <path fill-rule="evenodd" clip-rule="evenodd" d="M26.1889 6.33815e-06C32.1905 49.3333 31.0993 95.5 11.6915 158C2.21674 188.512 1.16117 239.218 0.530585 269.51C0.370116 277.218 0.237167 283.605 0 288H43.4916H60.0941H73.9987C85.0444 288 93.9987 279.046 93.9987 268V20C93.9987 8.95431 85.0444 0 73.9987 0H60.0941H43.4916L26.1889 6.33815e-06Z" fill="url(#pattern0)"/>
</svg>