<svg width="36" height="36" viewBox="0 0 36 36" fill="none" xmlns="http://www.w3.org/2000/svg">
<g id="ant-design:twitter-outlined">
<path id="Vector" d="M32.6246 8.94025C31.5488 9.40431 30.3781 9.7383 29.1723 9.86837C30.4242 9.12459 31.3618 7.94954 31.809 6.56369C30.6342 7.26255 29.3472 7.75261 28.0051 8.01212C27.4441 7.41245 26.7657 6.93472 26.0121 6.60871C25.2584 6.2827 24.4457 6.11539 23.6246 6.1172C20.3023 6.1172 17.6305 8.81017 17.6305 12.1149C17.6305 12.5789 17.6867 13.043 17.7781 13.4895C12.8035 13.2293 8.3668 10.8527 5.41719 7.21408C4.87974 8.13206 4.59809 9.17729 4.60156 10.241C4.60156 12.3223 5.65977 14.1574 7.27344 15.2367C6.32248 15.1993 5.39378 14.9379 4.56289 14.4738V14.5477C4.56289 17.4621 6.62305 19.8774 9.36875 20.4328C8.85321 20.5667 8.32288 20.6352 7.79023 20.6367C7.4 20.6367 7.03086 20.5981 6.6582 20.5453C7.41758 22.9219 9.62891 24.6481 12.2621 24.7043C10.202 26.318 7.62148 27.2672 4.81953 27.2672C4.3168 27.2672 3.85273 27.2496 3.37109 27.1934C6.02891 28.8985 9.18242 29.8828 12.5785 29.8828C23.6035 29.8828 29.6363 20.7492 29.6363 12.8215C29.6363 12.5613 29.6363 12.3012 29.6187 12.041C30.7859 11.1867 31.809 10.1285 32.6246 8.94025Z" fill="#2CB3ED"/>
</g>
</svg>
